<svg width="22" height="24" viewBox="0 0 22 24" fill="none" xmlns="http://www.w3.org/2000/svg">
<path d="M0.83721 10.0289L1.6713 9.95676C1.63268 9.51008 1.24904 9.17311 0.80112 9.19244C0.353191 9.21177 0 9.58053 0 10.0289H0.83721ZM20.0775 12.0641L19.29 16.6182L20.9399 16.9036L21.7275 12.3494L20.0775 12.0641ZM12.2735 22.3256H7.0843V24H12.2735V22.3256ZM6.06696 21.3907L5.16036 10.9058L3.49217 11.05L4.39877 21.5349L6.06696 21.3907ZM19.29 16.6182C18.7242 19.8895 15.7745 22.3256 12.2735 22.3256V24C16.5446 24 20.2279 21.0207 20.9399 16.9036L19.29 16.6182ZM12.2844 4.29784L11.5447 8.81271L13.1971 9.08344L13.9369 4.56858L12.2844 4.29784ZM5.51189 10.0416L7.11792 8.65769L6.02488 7.38925L4.41885 8.7732L5.51189 10.0416ZM10.0398 4.15485L10.5708 2.10776L8.9501 1.68733L8.41907 3.73442L10.0398 4.15485ZM11.3729 1.70613L11.5347 1.75811L12.0469 0.163942L11.885 0.111957L11.3729 1.70613ZM9.23554 6.21319C9.5837 5.56128 9.85418 4.87076 10.0398 4.15485L8.41907 3.73442C8.26686 4.32119 8.04501 4.8881 7.75861 5.42426L9.23554 6.21319ZM11.5347 1.75811C11.8768 1.868 12.1197 2.13219 12.1995 2.44L13.8203 2.01958C13.5909 1.13546 12.9142 0.442577 12.0469 0.163942L11.5347 1.75811ZM10.5708 2.10776C10.61 1.95706 10.7188 1.81856 10.8835 1.7392L10.1566 0.230785C9.56272 0.516932 9.11665 1.04513 8.9501 1.68733L10.5708 2.10776ZM10.8835 1.7392C11.0339 1.66672 11.2109 1.65411 11.3729 1.70613L11.885 0.111957C11.3161 -0.0708337 10.6953 -0.0288057 10.1566 0.230785L10.8835 1.7392ZM13.2879 10.8661H19.0714V9.19166H13.2879V10.8661ZM2.75588 22.4998L1.6713 9.95676L0.00311439 10.101L1.08769 22.6441L2.75588 22.4998ZM1.67442 22.6188V10.0289H0V22.6188H1.67442ZM1.08769 22.6441C1.07297 22.4738 1.20721 22.3256 1.38051 22.3256V24C2.1909 24 2.82555 23.3056 2.75588 22.4998L1.08769 22.6441ZM13.9369 4.56858C14.0758 3.72006 14.0362 2.85184 13.8203 2.01958L12.1995 2.44C12.3569 3.04658 12.3858 3.67938 12.2844 4.29784L13.9369 4.56858ZM7.0843 22.3256C6.55528 22.3256 6.11276 21.9204 6.06696 21.3907L4.39877 21.5349C4.51928 22.9286 5.68488 24 7.0843 24V22.3256ZM7.11792 8.65769C7.87682 8.00372 8.69492 7.2253 9.23554 6.21319L7.75861 5.42426C7.37195 6.14809 6.75628 6.75899 6.02488 7.38925L7.11792 8.65769ZM21.7275 12.3494C22.0125 10.7012 20.745 9.19166 19.0714 9.19166V10.8661C19.7039 10.8661 20.1859 11.4373 20.0775 12.0641L21.7275 12.3494ZM1.38051 22.3256C1.54373 22.3256 1.67442 22.4577 1.67442 22.6188H0C0 23.3808 0.61718 24 1.38051 24V22.3256ZM11.5447 8.81271C11.3686 9.88756 12.1971 10.8661 13.2879 10.8661V9.19166C13.2322 9.19166 13.1876 9.14122 13.1971 9.08344L11.5447 8.81271ZM5.16036 10.9058C5.13198 10.5776 5.26298 10.2561 5.51189 10.0416L4.41885 8.7732C3.76211 9.33913 3.41748 10.1864 3.49217 11.05L5.16036 10.9058Z" fill="#525252"/>
</svg>
