<svg width="42" height="42" viewBox="0 0 42 42" fill="none" xmlns="http://www.w3.org/2000/svg">
<path d="M1.01638 10.8327C0.83553 15.6031 2.04283 23.7043 10.1692 31.8308C12.1298 33.7913 14.0888 35.3491 16 36.5818M4.84453 3.34308C8.3269 -0.139302 13.8829 0.328599 16.094 4.29043L17.7165 7.19776C19.1807 9.82147 18.593 13.2633 16.2867 15.5695C16.2867 15.5695 13.4897 18.367 18.5612 23.4388C23.6312 28.5088 26.4305 25.7133 26.4305 25.7133C28.7367 23.407 32.1785 22.8193 34.8022 24.2835L37.7095 25.9061C41.6715 28.1171 42.1392 33.6731 38.657 37.1556C36.5645 39.2481 34.001 40.8763 31.1672 40.9836C29.1322 41.0608 26.4907 40.8853 23.5 40.0278" stroke="#1A4685" stroke-width="2" stroke-linecap="round"/>
</svg>
